<svg width="60" height="19" viewBox="0 0 60 19" fill="none" xmlns="http://www.w3.org/2000/svg">
<path d="M11.4219 15.668V18H2.85547V15.668H11.4219ZM3.67578 0.9375V18H0.734375V0.9375H3.67578ZM26.5513 9V9.9375C26.5513 11.2266 26.3834 12.3828 26.0474 13.4062C25.7115 14.4297 25.231 15.3008 24.606 16.0195C23.9888 16.7383 23.2467 17.2891 22.3795 17.6719C21.5123 18.0469 20.5513 18.2344 19.4967 18.2344C18.4498 18.2344 17.4928 18.0469 16.6256 17.6719C15.7662 17.2891 15.0201 16.7383 14.3873 16.0195C13.7545 15.3008 13.2623 14.4297 12.9107 13.4062C12.567 12.3828 12.3951 11.2266 12.3951 9.9375V9C12.3951 7.71094 12.567 6.55859 12.9107 5.54297C13.2545 4.51953 13.7388 3.64844 14.3638 2.92969C14.9967 2.20312 15.7428 1.65234 16.6021 1.27734C17.4693 0.894531 18.4263 0.703125 19.4732 0.703125C20.5279 0.703125 21.4888 0.894531 22.356 1.27734C23.2232 1.65234 23.9693 2.20312 24.5943 2.92969C25.2193 3.64844 25.6998 4.51953 26.0357 5.54297C26.3795 6.55859 26.5513 7.71094 26.5513 9ZM23.6099 9.9375V8.97656C23.6099 8.02344 23.5162 7.18359 23.3287 6.45703C23.149 5.72266 22.8795 5.10938 22.5201 4.61719C22.1685 4.11719 21.7349 3.74219 21.2193 3.49219C20.7037 3.23438 20.1217 3.10547 19.4732 3.10547C18.8248 3.10547 18.2467 3.23438 17.7388 3.49219C17.231 3.74219 16.7974 4.11719 16.4381 4.61719C16.0865 5.10938 15.817 5.72266 15.6295 6.45703C15.442 7.18359 15.3482 8.02344 15.3482 8.97656V9.9375C15.3482 10.8906 15.442 11.7344 15.6295 12.4688C15.817 13.2031 16.0904 13.8242 16.4498 14.332C16.817 14.832 17.2545 15.2109 17.7623 15.4688C18.2701 15.7188 18.8482 15.8438 19.4967 15.8438C20.1529 15.8438 20.7349 15.7188 21.2428 15.4688C21.7506 15.2109 22.1803 14.832 22.5318 14.332C22.8834 13.8242 23.149 13.2031 23.3287 12.4688C23.5162 11.7344 23.6099 10.8906 23.6099 9.9375ZM42.6183 9.28125V15.7969C42.3761 16.1172 41.9972 16.4688 41.4816 16.8516C40.9738 17.2266 40.298 17.5508 39.4543 17.8242C38.6105 18.0977 37.5597 18.2344 36.3019 18.2344C35.2316 18.2344 34.2511 18.0547 33.3605 17.6953C32.4699 17.3281 31.7003 16.793 31.0519 16.0898C30.4113 15.3867 29.9152 14.5312 29.5636 13.5234C29.2121 12.5078 29.0363 11.3516 29.0363 10.0547V8.87109C29.0363 7.58203 29.1964 6.43359 29.5168 5.42578C29.8449 4.41016 30.3136 3.55078 30.923 2.84766C31.5324 2.14453 32.2668 1.61328 33.1261 1.25391C33.9933 0.886719 34.9738 0.703125 36.0675 0.703125C37.466 0.703125 38.6222 0.9375 39.5363 1.40625C40.4582 1.86719 41.1691 2.50781 41.6691 3.32812C42.1691 4.14844 42.4855 5.08594 42.6183 6.14062H39.7355C39.6418 5.54687 39.4582 5.01562 39.1847 4.54688C38.9191 4.07812 38.5363 3.71094 38.0363 3.44531C37.5441 3.17188 36.9035 3.03516 36.1144 3.03516C35.4347 3.03516 34.8371 3.16406 34.3214 3.42188C33.8058 3.67969 33.3761 4.05859 33.0324 4.55859C32.6964 5.05859 32.4425 5.66797 32.2707 6.38672C32.0988 7.10547 32.0128 7.92578 32.0128 8.84766V10.0547C32.0128 10.9922 32.1105 11.8242 32.3058 12.5508C32.5089 13.2773 32.798 13.8906 33.173 14.3906C33.5558 14.8906 34.0207 15.2695 34.5675 15.5273C35.1144 15.7773 35.7316 15.9023 36.4191 15.9023C37.091 15.9023 37.6418 15.8477 38.0714 15.7383C38.5011 15.6211 38.841 15.4844 39.091 15.3281C39.3488 15.1641 39.548 15.0078 39.6886 14.8594V11.4727H36.1378V9.28125H42.6183ZM59.5056 9V9.9375C59.5056 11.2266 59.3376 12.3828 59.0017 13.4062C58.6657 14.4297 58.1853 15.3008 57.5603 16.0195C56.9431 16.7383 56.2009 17.2891 55.3337 17.6719C54.4665 18.0469 53.5056 18.2344 52.4509 18.2344C51.404 18.2344 50.447 18.0469 49.5798 17.6719C48.7204 17.2891 47.9743 16.7383 47.3415 16.0195C46.7087 15.3008 46.2165 14.4297 45.865 13.4062C45.5212 12.3828 45.3493 11.2266 45.3493 9.9375V9C45.3493 7.71094 45.5212 6.55859 45.865 5.54297C46.2087 4.51953 46.6931 3.64844 47.3181 2.92969C47.9509 2.20312 48.697 1.65234 49.5564 1.27734C50.4236 0.894531 51.3806 0.703125 52.4275 0.703125C53.4822 0.703125 54.4431 0.894531 55.3103 1.27734C56.1775 1.65234 56.9236 2.20312 57.5486 2.92969C58.1736 3.64844 58.654 4.51953 58.99 5.54297C59.3337 6.55859 59.5056 7.71094 59.5056 9ZM56.5642 9.9375V8.97656C56.5642 8.02344 56.4704 7.18359 56.2829 6.45703C56.1032 5.72266 55.8337 5.10938 55.4743 4.61719C55.1228 4.11719 54.6892 3.74219 54.1736 3.49219C53.6579 3.23438 53.0759 3.10547 52.4275 3.10547C51.779 3.10547 51.2009 3.23438 50.6931 3.49219C50.1853 3.74219 49.7517 4.11719 49.3923 4.61719C49.0407 5.10938 48.7712 5.72266 48.5837 6.45703C48.3962 7.18359 48.3025 8.02344 48.3025 8.97656V9.9375C48.3025 10.8906 48.3962 11.7344 48.5837 12.4688C48.7712 13.2031 49.0447 13.8242 49.404 14.332C49.7712 14.832 50.2087 15.2109 50.7165 15.4688C51.2243 15.7188 51.8025 15.8438 52.4509 15.8438C53.1072 15.8438 53.6892 15.7188 54.197 15.4688C54.7048 15.2109 55.1345 14.832 55.4861 14.332C55.8376 13.8242 56.1032 13.2031 56.2829 12.4688C56.4704 11.7344 56.5642 10.8906 56.5642 9.9375Z" fill="#5D5FEF"/>
</svg>
