<svg width="13" height="13" viewBox="0 0 13 13" fill="none" xmlns="http://www.w3.org/2000/svg">
<path d="M12.284 5.89666L0.950671 0.563323C0.836549 0.509623 0.709535 0.489398 0.584378 0.504997C0.45922 0.520595 0.341056 0.571377 0.243605 0.651446C0.146155 0.731515 0.0734165 0.837584 0.0338372 0.957339C-0.00574211 1.07709 -0.0105387 1.20562 0.0200046 1.32799L0.828005 4.56066L6 6.49999L0.828005 8.43932L0.0200046 11.672C-0.0111134 11.7944 -0.00671711 11.9232 0.0326791 12.0433C0.0720754 12.1633 0.144843 12.2697 0.242469 12.3499C0.340095 12.4301 0.458544 12.4809 0.58396 12.4962C0.709375 12.5116 0.836572 12.4909 0.950671 12.4367L12.284 7.10332C12.3985 7.04948 12.4954 6.96416 12.5632 6.85732C12.631 6.75048 12.6671 6.62654 12.6671 6.49999C12.6671 6.37344 12.631 6.2495 12.5632 6.14266C12.4954 6.03582 12.3985 5.95049 12.284 5.89666Z" fill="#C8C8C8"/>
</svg>
